<svg xmlns="http://www.w3.org/2000/svg" xmlns:xlink="http://www.w3.org/1999/xlink" width="500" zoomAndPan="magnify" viewBox="0 0 375 374.999991" height="500" preserveAspectRatio="xMidYMid meet" version="1.0"><defs><clipPath id="e1f325d223"><path d="M 187.5 0 C 83.945312 0 0 83.945312 0 187.5 C 0 291.054688 83.945312 375 187.5 375 C 291.054688 375 375 291.054688 375 187.5 C 375 83.945312 291.054688 0 187.5 0 Z M 187.5 0 " clip-rule="nonzero"/></clipPath><clipPath id="44600afaae"><path d="M 97.039062 97.039062 L 277.789062 97.039062 L 277.789062 277.789062 L 97.039062 277.789062 Z M 97.039062 97.039062 " clip-rule="nonzero"/></clipPath><clipPath id="8fe48ddc64"><path d="M 141 146.503906 L 234.878906 146.503906 L 234.878906 228.253906 L 141 228.253906 Z M 141 146.503906 " clip-rule="nonzero"/></clipPath><clipPath id="957ff5f8ca"><path d="M 75.015625 231 L 144 231 L 144 300 L 75.015625 300 Z M 75.015625 231 " clip-rule="nonzero"/></clipPath><clipPath id="fa95e8c428"><path d="M 75.015625 75.015625 L 144 75.015625 L 144 144 L 75.015625 144 Z M 75.015625 75.015625 " clip-rule="nonzero"/></clipPath><clipPath id="8b25e38e9d"><path d="M 231 75.015625 L 300 75.015625 L 300 144 L 231 144 Z M 231 75.015625 " clip-rule="nonzero"/></clipPath></defs><g clip-path="url(#e1f325d223)"><rect x="-37.5" width="450" fill="#864af9" y="-37.499999" height="449.999989" fill-opacity="1"/></g><g clip-path="url(#44600afaae)"><path fill="#e2e2e2" d="M 277.9375 187.488281 C 277.9375 188.96875 277.902344 190.449219 277.828125 191.925781 C 277.757812 193.40625 277.648438 194.882812 277.503906 196.355469 C 277.359375 197.828125 277.175781 199.296875 276.960938 200.761719 C 276.742188 202.222656 276.488281 203.683594 276.199219 205.132812 C 275.910156 206.585938 275.585938 208.03125 275.226562 209.464844 C 274.867188 210.902344 274.472656 212.328125 274.042969 213.746094 C 273.613281 215.160156 273.148438 216.566406 272.652344 217.960938 C 272.152344 219.355469 271.621094 220.734375 271.054688 222.101562 C 270.488281 223.46875 269.886719 224.824219 269.253906 226.160156 C 268.621094 227.5 267.957031 228.820312 267.257812 230.125 C 266.558594 231.429688 265.832031 232.71875 265.070312 233.988281 C 264.308594 235.257812 263.515625 236.507812 262.695312 237.738281 C 261.871094 238.96875 261.019531 240.179688 260.136719 241.371094 C 259.257812 242.558594 258.347656 243.726562 257.40625 244.867188 C 256.46875 246.011719 255.5 247.132812 254.507812 248.230469 C 253.511719 249.328125 252.492188 250.398438 251.445312 251.445312 C 250.398438 252.492188 249.328125 253.511719 248.230469 254.507812 C 247.132812 255.5 246.011719 256.46875 244.871094 257.40625 C 243.726562 258.347656 242.558594 259.257812 241.371094 260.136719 C 240.179688 261.019531 238.96875 261.871094 237.738281 262.695312 C 236.507812 263.515625 235.257812 264.308594 233.988281 265.070312 C 232.71875 265.832031 231.433594 266.558594 230.125 267.257812 C 228.820312 267.957031 227.5 268.621094 226.160156 269.253906 C 224.824219 269.886719 223.46875 270.488281 222.101562 271.054688 C 220.734375 271.621094 219.355469 272.152344 217.960938 272.652344 C 216.566406 273.148438 215.160156 273.613281 213.746094 274.042969 C 212.328125 274.472656 210.902344 274.867188 209.464844 275.226562 C 208.03125 275.585938 206.585938 275.910156 205.132812 276.199219 C 203.683594 276.488281 202.222656 276.742188 200.761719 276.960938 C 199.296875 277.175781 197.828125 277.359375 196.355469 277.503906 C 194.882812 277.648438 193.40625 277.757812 191.925781 277.828125 C 190.449219 277.902344 188.96875 277.9375 187.488281 277.9375 C 186.007812 277.9375 184.527344 277.902344 183.050781 277.828125 C 181.570312 277.757812 180.097656 277.648438 178.621094 277.503906 C 177.148438 277.359375 175.679688 277.175781 174.21875 276.960938 C 172.753906 276.742188 171.292969 276.488281 169.84375 276.199219 C 168.390625 275.910156 166.945312 275.585938 165.511719 275.226562 C 164.074219 274.867188 162.648438 274.472656 161.230469 274.042969 C 159.816406 273.613281 158.410156 273.148438 157.015625 272.652344 C 155.625 272.152344 154.242188 271.621094 152.875 271.054688 C 151.507812 270.488281 150.15625 269.886719 148.816406 269.253906 C 147.476562 268.621094 146.15625 267.957031 144.851562 267.257812 C 143.546875 266.558594 142.257812 265.832031 140.988281 265.070312 C 139.71875 264.308594 138.46875 263.515625 137.238281 262.695312 C 136.007812 261.871094 134.796875 261.019531 133.609375 260.136719 C 132.417969 259.257812 131.253906 258.347656 130.109375 257.40625 C 128.964844 256.46875 127.84375 255.5 126.746094 254.507812 C 125.648438 253.511719 124.578125 252.492188 123.53125 251.445312 C 122.484375 250.398438 121.464844 249.328125 120.46875 248.230469 C 119.476562 247.132812 118.507812 246.011719 117.570312 244.867188 C 116.632812 243.726562 115.71875 242.558594 114.839844 241.371094 C 113.957031 240.179688 113.105469 238.96875 112.28125 237.738281 C 111.460938 236.507812 110.667969 235.257812 109.90625 233.988281 C 109.144531 232.71875 108.417969 231.429688 107.71875 230.125 C 107.019531 228.820312 106.355469 227.5 105.722656 226.160156 C 105.089844 224.824219 104.492188 223.46875 103.925781 222.101562 C 103.359375 220.734375 102.824219 219.355469 102.328125 217.960938 C 101.828125 216.566406 101.363281 215.160156 100.933594 213.746094 C 100.503906 212.328125 100.109375 210.902344 99.75 209.464844 C 99.390625 208.03125 99.066406 206.585938 98.777344 205.132812 C 98.488281 203.683594 98.234375 202.222656 98.019531 200.761719 C 97.800781 199.296875 97.621094 197.828125 97.472656 196.355469 C 97.328125 194.882812 97.21875 193.40625 97.148438 191.925781 C 97.074219 190.449219 97.039062 188.96875 97.039062 187.488281 C 97.039062 186.007812 97.074219 184.527344 97.148438 183.050781 C 97.21875 181.570312 97.328125 180.097656 97.472656 178.621094 C 97.621094 177.148438 97.800781 175.679688 98.019531 174.21875 C 98.234375 172.753906 98.488281 171.292969 98.777344 169.84375 C 99.066406 168.390625 99.390625 166.945312 99.75 165.511719 C 100.109375 164.074219 100.503906 162.648438 100.933594 161.230469 C 101.363281 159.816406 101.828125 158.410156 102.328125 157.015625 C 102.824219 155.625 103.359375 154.242188 103.925781 152.875 C 104.492188 151.507812 105.089844 150.15625 105.722656 148.816406 C 106.355469 147.476562 107.019531 146.15625 107.71875 144.851562 C 108.417969 143.546875 109.144531 142.257812 109.90625 140.988281 C 110.667969 139.71875 111.460938 138.46875 112.28125 137.238281 C 113.105469 136.007812 113.957031 134.796875 114.839844 133.609375 C 115.71875 132.417969 116.632812 131.253906 117.570312 130.109375 C 118.507812 128.964844 119.476562 127.84375 120.46875 126.746094 C 121.464844 125.648438 122.484375 124.578125 123.53125 123.53125 C 124.578125 122.484375 125.648438 121.464844 126.746094 120.46875 C 127.84375 119.476562 128.964844 118.507812 130.109375 117.570312 C 131.253906 116.632812 132.417969 115.71875 133.609375 114.839844 C 134.796875 113.957031 136.007812 113.105469 137.238281 112.28125 C 138.46875 111.460938 139.71875 110.667969 140.988281 109.90625 C 142.257812 109.144531 143.546875 108.417969 144.851562 107.71875 C 146.15625 107.019531 147.476562 106.355469 148.816406 105.722656 C 150.15625 105.089844 151.507812 104.492188 152.875 103.925781 C 154.242188 103.359375 155.625 102.824219 157.015625 102.328125 C 158.410156 101.828125 159.816406 101.363281 161.230469 100.933594 C 162.648438 100.503906 164.074219 100.109375 165.511719 99.75 C 166.945312 99.390625 168.390625 99.066406 169.84375 98.777344 C 171.292969 98.488281 172.753906 98.234375 174.21875 98.019531 C 175.679688 97.800781 177.148438 97.621094 178.621094 97.472656 C 180.097656 97.328125 181.570312 97.21875 183.050781 97.148438 C 184.527344 97.074219 186.007812 97.039062 187.488281 97.039062 C 188.96875 97.039062 190.449219 97.074219 191.925781 97.148438 C 193.40625 97.21875 194.882812 97.328125 196.355469 97.472656 C 197.828125 97.621094 199.296875 97.800781 200.761719 98.019531 C 202.222656 98.234375 203.683594 98.488281 205.132812 98.777344 C 206.585938 99.066406 208.03125 99.390625 209.464844 99.75 C 210.902344 100.109375 212.328125 100.503906 213.746094 100.933594 C 215.160156 101.363281 216.566406 101.828125 217.960938 102.328125 C 219.355469 102.824219 220.734375 103.359375 222.101562 103.925781 C 223.46875 104.492188 224.824219 105.089844 226.160156 105.722656 C 227.5 106.355469 228.820312 107.019531 230.125 107.71875 C 231.433594 108.417969 232.71875 109.144531 233.988281 109.90625 C 235.257812 110.667969 236.507812 111.460938 237.738281 112.28125 C 238.96875 113.105469 240.179688 113.957031 241.371094 114.839844 C 242.558594 115.71875 243.726562 116.632812 244.871094 117.570312 C 246.011719 118.507812 247.132812 119.476562 248.230469 120.46875 C 249.328125 121.464844 250.398438 122.484375 251.445312 123.53125 C 252.492188 124.578125 253.511719 125.648438 254.507812 126.746094 C 255.5 127.84375 256.46875 128.964844 257.40625 130.109375 C 258.347656 131.253906 259.257812 132.417969 260.136719 133.609375 C 261.019531 134.796875 261.871094 136.007812 262.695312 137.238281 C 263.515625 138.46875 264.308594 139.71875 265.070312 140.988281 C 265.832031 142.257812 266.558594 143.546875 267.257812 144.851562 C 267.957031 146.15625 268.621094 147.476562 269.253906 148.816406 C 269.886719 150.15625 270.488281 151.507812 271.054688 152.875 C 271.621094 154.242188 272.152344 155.625 272.652344 157.015625 C 273.148438 158.410156 273.613281 159.816406 274.042969 161.230469 C 274.472656 162.648438 274.867188 164.074219 275.226562 165.511719 C 275.585938 166.945312 275.910156 168.390625 276.199219 169.84375 C 276.488281 171.292969 276.742188 172.753906 276.960938 174.21875 C 277.175781 175.679688 277.359375 177.148438 277.503906 178.621094 C 277.648438 180.097656 277.757812 181.570312 277.828125 183.050781 C 277.902344 184.527344 277.9375 186.007812 277.9375 187.488281 Z M 277.9375 187.488281 " fill-opacity="1" fill-rule="nonzero"/></g><path fill="#ffffff" d="M 274.363281 187.488281 C 274.363281 188.910156 274.328125 190.332031 274.257812 191.75 C 274.1875 193.171875 274.082031 194.589844 273.941406 196.003906 C 273.804688 197.417969 273.628906 198.828125 273.421875 200.234375 C 273.210938 201.640625 272.96875 203.042969 272.691406 204.4375 C 272.414062 205.832031 272.105469 207.21875 271.757812 208.597656 C 271.414062 209.976562 271.035156 211.347656 270.621094 212.707031 C 270.207031 214.066406 269.761719 215.417969 269.285156 216.753906 C 268.804688 218.09375 268.292969 219.417969 267.75 220.734375 C 267.203125 222.046875 266.628906 223.347656 266.019531 224.632812 C 265.414062 225.917969 264.773438 227.1875 264.105469 228.441406 C 263.433594 229.695312 262.734375 230.929688 262.003906 232.148438 C 261.269531 233.371094 260.511719 234.570312 259.722656 235.753906 C 258.929688 236.933594 258.113281 238.097656 257.265625 239.238281 C 256.417969 240.378906 255.542969 241.5 254.640625 242.601562 C 253.742188 243.699219 252.8125 244.777344 251.855469 245.828125 C 250.902344 246.882812 249.921875 247.910156 248.917969 248.917969 C 247.910156 249.921875 246.882812 250.902344 245.828125 251.855469 C 244.777344 252.8125 243.699219 253.742188 242.601562 254.640625 C 241.5 255.542969 240.378906 256.417969 239.238281 257.265625 C 238.097656 258.113281 236.933594 258.929688 235.753906 259.722656 C 234.570312 260.511719 233.371094 261.269531 232.148438 262.003906 C 230.929688 262.734375 229.695312 263.433594 228.441406 264.105469 C 227.1875 264.773438 225.917969 265.414062 224.632812 266.019531 C 223.347656 266.628906 222.046875 267.203125 220.734375 267.75 C 219.417969 268.292969 218.09375 268.804688 216.753906 269.285156 C 215.417969 269.761719 214.066406 270.207031 212.707031 270.621094 C 211.347656 271.035156 209.976562 271.414062 208.597656 271.757812 C 207.21875 272.101562 205.832031 272.414062 204.4375 272.691406 C 203.042969 272.96875 201.640625 273.210938 200.234375 273.421875 C 198.828125 273.628906 197.417969 273.804688 196.003906 273.941406 C 194.589844 274.082031 193.171875 274.1875 191.75 274.257812 C 190.332031 274.328125 188.910156 274.363281 187.488281 274.363281 C 186.066406 274.363281 184.644531 274.328125 183.226562 274.257812 C 181.804688 274.1875 180.386719 274.082031 178.972656 273.941406 C 177.558594 273.804688 176.148438 273.628906 174.742188 273.421875 C 173.335938 273.210938 171.933594 272.96875 170.539062 272.691406 C 169.144531 272.414062 167.757812 272.101562 166.378906 271.757812 C 165 271.414062 163.632812 271.035156 162.269531 270.621094 C 160.910156 270.207031 159.558594 269.761719 158.222656 269.285156 C 156.882812 268.804688 155.558594 268.292969 154.242188 267.75 C 152.929688 267.203125 151.628906 266.628906 150.34375 266.019531 C 149.058594 265.414062 147.789062 264.773438 146.535156 264.105469 C 145.28125 263.433594 144.046875 262.734375 142.828125 262.003906 C 141.605469 261.269531 140.40625 260.511719 139.222656 259.722656 C 138.042969 258.929688 136.878906 258.113281 135.738281 257.265625 C 134.597656 256.417969 133.476562 255.542969 132.375 254.640625 C 131.277344 253.742188 130.203125 252.8125 129.148438 251.855469 C 128.09375 250.902344 127.066406 249.921875 126.058594 248.917969 C 125.054688 247.910156 124.074219 246.882812 123.121094 245.828125 C 122.164062 244.777344 121.238281 243.699219 120.335938 242.601562 C 119.433594 241.5 118.558594 240.378906 117.710938 239.238281 C 116.863281 238.097656 116.046875 236.933594 115.257812 235.753906 C 114.464844 234.570312 113.707031 233.371094 112.976562 232.148438 C 112.242188 230.929688 111.542969 229.695312 110.875 228.441406 C 110.203125 227.1875 109.5625 225.917969 108.957031 224.632812 C 108.347656 223.347656 107.773438 222.046875 107.226562 220.734375 C 106.683594 219.417969 106.171875 218.09375 105.695312 216.753906 C 105.214844 215.417969 104.769531 214.066406 104.355469 212.707031 C 103.945312 211.347656 103.5625 209.976562 103.21875 208.597656 C 102.875 207.21875 102.5625 205.832031 102.285156 204.4375 C 102.007812 203.042969 101.765625 201.640625 101.554688 200.234375 C 101.347656 198.828125 101.171875 197.417969 101.035156 196.003906 C 100.894531 194.589844 100.789062 193.171875 100.71875 191.75 C 100.652344 190.332031 100.617188 188.910156 100.617188 187.488281 C 100.617188 186.066406 100.652344 184.644531 100.71875 183.226562 C 100.789062 181.804688 100.894531 180.386719 101.035156 178.972656 C 101.171875 177.558594 101.347656 176.148438 101.554688 174.742188 C 101.765625 173.335938 102.007812 171.933594 102.285156 170.539062 C 102.5625 169.144531 102.875 167.757812 103.21875 166.378906 C 103.5625 165 103.945312 163.632812 104.355469 162.269531 C 104.769531 160.910156 105.214844 159.558594 105.695312 158.222656 C 106.171875 156.882812 106.683594 155.558594 107.226562 154.242188 C 107.773438 152.929688 108.347656 151.628906 108.957031 150.34375 C 109.5625 149.058594 110.203125 147.789062 110.875 146.535156 C 111.542969 145.28125 112.242188 144.046875 112.976562 142.828125 C 113.707031 141.605469 114.464844 140.40625 115.257812 139.222656 C 116.046875 138.042969 116.863281 136.878906 117.710938 135.738281 C 118.558594 134.597656 119.433594 133.476562 120.335938 132.375 C 121.238281 131.277344 122.164062 130.203125 123.121094 129.148438 C 124.074219 128.09375 125.054688 127.066406 126.058594 126.058594 C 127.066406 125.054688 128.09375 124.074219 129.148438 123.121094 C 130.203125 122.164062 131.277344 121.238281 132.375 120.335938 C 133.476562 119.433594 134.597656 118.558594 135.738281 117.710938 C 136.878906 116.863281 138.042969 116.046875 139.222656 115.257812 C 140.40625 114.464844 141.605469 113.707031 142.828125 112.976562 C 144.046875 112.242188 145.28125 111.542969 146.535156 110.875 C 147.789062 110.203125 149.058594 109.5625 150.34375 108.957031 C 151.628906 108.347656 152.929688 107.773438 154.242188 107.226562 C 155.558594 106.683594 156.882812 106.171875 158.222656 105.695312 C 159.558594 105.214844 160.910156 104.769531 162.269531 104.355469 C 163.632812 103.945312 165 103.5625 166.378906 103.21875 C 167.757812 102.875 169.144531 102.5625 170.539062 102.285156 C 171.933594 102.007812 173.335938 101.765625 174.742188 101.554688 C 176.148438 101.347656 177.558594 101.171875 178.972656 101.035156 C 180.386719 100.894531 181.804688 100.789062 183.226562 100.71875 C 184.644531 100.652344 186.066406 100.617188 187.488281 100.617188 C 188.910156 100.617188 190.332031 100.652344 191.75 100.71875 C 193.171875 100.789062 194.589844 100.894531 196.003906 101.035156 C 197.417969 101.171875 198.828125 101.347656 200.234375 101.554688 C 201.640625 101.765625 203.042969 102.007812 204.4375 102.285156 C 205.832031 102.5625 207.21875 102.875 208.597656 103.21875 C 209.976562 103.5625 211.347656 103.945312 212.707031 104.355469 C 214.066406 104.769531 215.417969 105.214844 216.753906 105.695312 C 218.09375 106.171875 219.417969 106.683594 220.734375 107.226562 C 222.046875 107.773438 223.347656 108.347656 224.632812 108.957031 C 225.917969 109.5625 227.1875 110.203125 228.441406 110.875 C 229.695312 111.542969 230.929688 112.242188 232.148438 112.976562 C 233.371094 113.707031 234.570312 114.464844 235.753906 115.257812 C 236.933594 116.046875 238.097656 116.863281 239.238281 117.710938 C 240.378906 118.558594 241.5 119.433594 242.601562 120.335938 C 243.699219 121.238281 244.777344 122.164062 245.828125 123.121094 C 246.882812 124.074219 247.910156 125.054688 248.917969 126.058594 C 249.921875 127.066406 250.902344 128.09375 251.855469 129.148438 C 252.8125 130.203125 253.742188 131.277344 254.640625 132.375 C 255.542969 133.476562 256.417969 134.597656 257.265625 135.738281 C 258.113281 136.878906 258.929688 138.042969 259.722656 139.222656 C 260.511719 140.40625 261.269531 141.605469 262.003906 142.828125 C 262.734375 144.046875 263.433594 145.28125 264.105469 146.535156 C 264.773438 147.789062 265.414062 149.058594 266.019531 150.34375 C 266.628906 151.628906 267.203125 152.929688 267.75 154.242188 C 268.292969 155.558594 268.804688 156.882812 269.285156 158.222656 C 269.761719 159.558594 270.207031 160.910156 270.621094 162.269531 C 271.035156 163.632812 271.414062 165 271.757812 166.378906 C 272.101562 167.757812 272.414062 169.144531 272.691406 170.539062 C 272.96875 171.933594 273.210938 173.335938 273.421875 174.742188 C 273.628906 176.148438 273.804688 177.558594 273.941406 178.972656 C 274.082031 180.386719 274.1875 181.804688 274.257812 183.226562 C 274.328125 184.644531 274.363281 186.066406 274.363281 187.488281 Z M 274.363281 187.488281 " fill-opacity="1" fill-rule="nonzero"/><path fill="#864af9" d="M 246.199219 187.488281 C 246.199219 189.515625 246.101562 191.535156 245.902344 193.550781 C 245.703125 195.566406 245.40625 197.566406 245.011719 199.554688 C 244.617188 201.539062 244.125 203.503906 243.535156 205.441406 C 242.949219 207.378906 242.265625 209.285156 241.492188 211.15625 C 240.71875 213.027344 239.851562 214.855469 238.898438 216.640625 C 237.941406 218.429688 236.902344 220.164062 235.777344 221.847656 C 234.652344 223.53125 233.445312 225.15625 232.160156 226.722656 C 230.875 228.289062 229.519531 229.785156 228.085938 231.21875 C 226.652344 232.652344 225.15625 234.011719 223.589844 235.296875 C 222.023438 236.578125 220.398438 237.785156 218.714844 238.910156 C 217.03125 240.035156 215.296875 241.074219 213.507812 242.03125 C 211.722656 242.984375 209.894531 243.851562 208.023438 244.625 C 206.152344 245.402344 204.246094 246.082031 202.308594 246.671875 C 200.371094 247.257812 198.40625 247.75 196.421875 248.144531 C 194.433594 248.539062 192.433594 248.835938 190.417969 249.035156 C 188.402344 249.234375 186.378906 249.332031 184.355469 249.332031 C 182.328125 249.332031 180.308594 249.234375 178.292969 249.035156 C 176.277344 248.835938 174.277344 248.539062 172.289062 248.144531 C 170.304688 247.75 168.339844 247.257812 166.402344 246.671875 C 164.464844 246.082031 162.558594 245.402344 160.6875 244.625 C 158.816406 243.851562 156.988281 242.984375 155.203125 242.03125 C 153.414062 241.074219 151.679688 240.035156 149.996094 238.910156 C 148.3125 237.785156 146.6875 236.578125 145.121094 235.296875 C 143.554688 234.011719 142.058594 232.652344 140.625 231.21875 C 139.191406 229.785156 137.832031 228.289062 136.546875 226.722656 C 135.265625 225.15625 134.058594 223.53125 132.933594 221.847656 C 131.808594 220.164062 130.769531 218.429688 129.8125 216.640625 C 128.859375 214.855469 127.992188 213.027344 127.21875 211.15625 C 126.441406 209.285156 125.761719 207.378906 125.171875 205.441406 C 124.585938 203.503906 124.09375 201.539062 123.699219 199.554688 C 123.304688 197.566406 123.007812 195.566406 122.808594 193.550781 C 122.609375 191.535156 122.511719 189.515625 122.511719 187.488281 C 122.511719 185.464844 122.609375 183.441406 122.808594 181.425781 C 123.007812 179.410156 123.304688 177.410156 123.699219 175.421875 C 124.09375 173.4375 124.585938 171.472656 125.171875 169.535156 C 125.761719 167.597656 126.441406 165.691406 127.21875 163.820312 C 127.992188 161.949219 128.859375 160.121094 129.8125 158.335938 C 130.769531 156.550781 131.808594 154.8125 132.933594 153.128906 C 134.058594 151.445312 135.265625 149.820312 136.546875 148.253906 C 137.832031 146.6875 139.191406 145.191406 140.625 143.757812 C 142.058594 142.324219 143.554688 140.96875 145.121094 139.683594 C 146.6875 138.398438 148.3125 137.191406 149.996094 136.066406 C 151.679688 134.941406 153.414062 133.902344 155.203125 132.945312 C 156.988281 131.992188 158.816406 131.125 160.6875 130.351562 C 162.558594 129.578125 164.464844 128.894531 166.402344 128.308594 C 168.339844 127.71875 170.304688 127.226562 172.289062 126.832031 C 174.277344 126.4375 176.277344 126.140625 178.292969 125.941406 C 180.308594 125.742188 182.328125 125.644531 184.355469 125.644531 C 186.378906 125.644531 188.402344 125.742188 190.417969 125.941406 C 192.433594 126.140625 194.433594 126.4375 196.421875 126.832031 C 198.40625 127.226562 200.371094 127.71875 202.308594 128.308594 C 204.246094 128.894531 206.152344 129.578125 208.023438 130.351562 C 209.894531 131.125 211.722656 131.992188 213.507812 132.945312 C 215.296875 133.902344 217.03125 134.941406 218.714844 136.066406 C 220.398438 137.191406 222.023438 138.398438 223.589844 139.683594 C 225.15625 140.96875 226.652344 142.324219 228.085938 143.757812 C 229.519531 145.191406 230.875 146.6875 232.160156 148.253906 C 233.445312 149.820312 234.652344 151.445312 235.777344 153.128906 C 236.902344 154.8125 237.941406 156.550781 238.898438 158.335938 C 239.851562 160.121094 240.71875 161.949219 241.492188 163.820312 C 242.265625 165.691406 242.949219 167.597656 243.535156 169.535156 C 244.125 171.472656 244.617188 173.4375 245.011719 175.421875 C 245.40625 177.410156 245.703125 179.410156 245.902344 181.425781 C 246.101562 183.441406 246.199219 185.464844 246.199219 187.488281 Z M 246.199219 187.488281 " fill-opacity="1" fill-rule="nonzero"/><path fill="#e2e2e2" d="M 251.574219 187.488281 C 251.574219 189.515625 251.476562 191.535156 251.277344 193.550781 C 251.078125 195.566406 250.78125 197.566406 250.386719 199.554688 C 249.992188 201.539062 249.5 203.503906 248.914062 205.441406 C 248.324219 207.378906 247.644531 209.285156 246.867188 211.15625 C 246.09375 213.027344 245.226562 214.855469 244.273438 216.640625 C 243.320312 218.429688 242.277344 220.164062 241.152344 221.847656 C 240.027344 223.53125 238.824219 225.15625 237.539062 226.722656 C 236.253906 228.289062 234.894531 229.785156 233.460938 231.21875 C 232.03125 232.652344 230.53125 234.011719 228.964844 235.296875 C 227.398438 236.578125 225.773438 237.785156 224.089844 238.910156 C 222.40625 240.035156 220.671875 241.074219 218.882812 242.03125 C 217.097656 242.984375 215.269531 243.851562 213.398438 244.625 C 211.527344 245.402344 209.621094 246.082031 207.683594 246.671875 C 205.746094 247.257812 203.78125 247.75 201.796875 248.144531 C 199.808594 248.539062 197.808594 248.835938 195.792969 249.035156 C 193.777344 249.234375 191.757812 249.332031 189.730469 249.332031 C 187.707031 249.332031 185.683594 249.234375 183.667969 249.035156 C 181.652344 248.835938 179.652344 248.539062 177.667969 248.144531 C 175.679688 247.75 173.71875 247.257812 171.777344 246.671875 C 169.839844 246.082031 167.9375 245.402344 166.0625 244.625 C 164.191406 243.851562 162.363281 242.984375 160.578125 242.03125 C 158.792969 241.074219 157.054688 240.035156 155.371094 238.910156 C 153.6875 237.785156 152.0625 236.578125 150.496094 235.296875 C 148.933594 234.011719 147.433594 232.652344 146 231.21875 C 144.570312 229.785156 143.210938 228.289062 141.925781 226.722656 C 140.640625 225.15625 139.433594 223.53125 138.308594 221.847656 C 137.183594 220.164062 136.144531 218.429688 135.1875 216.640625 C 134.234375 214.855469 133.371094 213.027344 132.59375 211.15625 C 131.820312 209.285156 131.136719 207.378906 130.550781 205.441406 C 129.960938 203.503906 129.46875 201.539062 129.074219 199.554688 C 128.679688 197.566406 128.382812 195.566406 128.183594 193.550781 C 127.984375 191.535156 127.886719 189.515625 127.886719 187.488281 C 127.886719 185.464844 127.984375 183.441406 128.183594 181.425781 C 128.382812 179.410156 128.679688 177.410156 129.074219 175.421875 C 129.46875 173.4375 129.960938 171.472656 130.550781 169.535156 C 131.136719 167.597656 131.820312 165.691406 132.59375 163.820312 C 133.371094 161.949219 134.234375 160.121094 135.1875 158.335938 C 136.144531 156.550781 137.183594 154.8125 138.308594 153.128906 C 139.433594 151.445312 140.640625 149.820312 141.925781 148.253906 C 143.210938 146.6875 144.570312 145.191406 146 143.757812 C 147.433594 142.324219 148.933594 140.96875 150.496094 139.683594 C 152.0625 138.398438 153.6875 137.191406 155.371094 136.066406 C 157.054688 134.941406 158.792969 133.902344 160.578125 132.945312 C 162.363281 131.992188 164.191406 131.125 166.0625 130.351562 C 167.9375 129.578125 169.839844 128.894531 171.777344 128.308594 C 173.71875 127.71875 175.679688 127.226562 177.667969 126.832031 C 179.652344 126.4375 181.652344 126.140625 183.667969 125.941406 C 185.683594 125.742188 187.707031 125.644531 189.730469 125.644531 C 191.757812 125.644531 193.777344 125.742188 195.792969 125.941406 C 197.808594 126.140625 199.808594 126.4375 201.796875 126.832031 C 203.78125 127.226562 205.746094 127.71875 207.683594 128.308594 C 209.621094 128.894531 211.527344 129.578125 213.398438 130.351562 C 215.269531 131.125 217.097656 131.992188 218.882812 132.945312 C 220.671875 133.902344 222.40625 134.941406 224.089844 136.066406 C 225.773438 137.191406 227.398438 138.398438 228.964844 139.683594 C 230.53125 140.96875 232.03125 142.324219 233.460938 143.757812 C 234.894531 145.191406 236.253906 146.6875 237.539062 148.253906 C 238.824219 149.820312 240.027344 151.445312 241.152344 153.128906 C 242.277344 154.8125 243.320312 156.550781 244.273438 158.335938 C 245.226562 160.121094 246.09375 161.949219 246.867188 163.820312 C 247.644531 165.691406 248.324219 167.597656 248.914062 169.535156 C 249.5 171.472656 249.992188 173.4375 250.386719 175.421875 C 250.78125 177.410156 251.078125 179.410156 251.277344 181.425781 C 251.476562 183.441406 251.574219 185.464844 251.574219 187.488281 Z M 251.574219 187.488281 " fill-opacity="1" fill-rule="nonzero"/><path fill="#ffffff" d="M 247.527344 187.488281 C 247.527344 189.453125 247.429688 191.417969 247.238281 193.375 C 247.042969 195.332031 246.757812 197.273438 246.371094 199.203125 C 245.988281 201.128906 245.511719 203.035156 244.941406 204.917969 C 244.371094 206.796875 243.707031 208.648438 242.957031 210.464844 C 242.203125 212.28125 241.363281 214.054688 240.4375 215.789062 C 239.511719 217.523438 238.5 219.207031 237.40625 220.84375 C 236.316406 222.480469 235.144531 224.054688 233.898438 225.574219 C 232.652344 227.097656 231.332031 228.550781 229.941406 229.941406 C 228.550781 231.332031 227.097656 232.652344 225.574219 233.898438 C 224.054688 235.144531 222.480469 236.316406 220.84375 237.40625 C 219.207031 238.5 217.523438 239.511719 215.789062 240.4375 C 214.054688 241.363281 212.28125 242.203125 210.464844 242.957031 C 208.648438 243.707031 206.796875 244.371094 204.917969 244.941406 C 203.035156 245.511719 201.128906 245.988281 199.203125 246.371094 C 197.273438 246.757812 195.332031 247.042969 193.375 247.238281 C 191.417969 247.429688 189.453125 247.527344 187.488281 247.527344 C 185.523438 247.527344 183.5625 247.429688 181.605469 247.238281 C 179.648438 247.042969 177.703125 246.757812 175.777344 246.371094 C 173.847656 245.988281 171.941406 245.511719 170.058594 244.941406 C 168.179688 244.371094 166.328125 243.707031 164.511719 242.957031 C 162.695312 242.203125 160.921875 241.363281 159.1875 240.4375 C 157.453125 239.511719 155.769531 238.5 154.132812 237.40625 C 152.5 236.316406 150.921875 235.144531 149.402344 233.898438 C 147.882812 232.652344 146.425781 231.332031 145.035156 229.941406 C 143.644531 228.550781 142.328125 227.097656 141.078125 225.574219 C 139.832031 224.054688 138.660156 222.480469 137.570312 220.84375 C 136.476562 219.207031 135.46875 217.523438 134.539062 215.789062 C 133.613281 214.054688 132.773438 212.28125 132.019531 210.464844 C 131.269531 208.648438 130.605469 206.796875 130.035156 204.917969 C 129.464844 203.035156 128.988281 201.128906 128.605469 199.203125 C 128.222656 197.273438 127.933594 195.332031 127.738281 193.375 C 127.546875 191.417969 127.449219 189.453125 127.449219 187.488281 C 127.449219 185.523438 127.546875 183.5625 127.738281 181.605469 C 127.933594 179.648438 128.222656 177.703125 128.605469 175.777344 C 128.988281 173.847656 129.464844 171.941406 130.035156 170.058594 C 130.605469 168.179688 131.269531 166.328125 132.019531 164.511719 C 132.773438 162.695312 133.613281 160.921875 134.539062 159.1875 C 135.46875 157.453125 136.476562 155.769531 137.570312 154.132812 C 138.660156 152.5 139.832031 150.921875 141.078125 149.402344 C 142.328125 147.882812 143.644531 146.425781 145.035156 145.035156 C 146.425781 143.644531 147.882812 142.328125 149.402344 141.078125 C 150.921875 139.832031 152.5 138.660156 154.132812 137.570312 C 155.769531 136.476562 157.453125 135.46875 159.1875 134.539062 C 160.921875 133.613281 162.695312 132.773438 164.511719 132.019531 C 166.328125 131.269531 168.179688 130.605469 170.058594 130.035156 C 171.941406 129.464844 173.847656 128.988281 175.777344 128.605469 C 177.703125 128.222656 179.648438 127.933594 181.605469 127.738281 C 183.5625 127.546875 185.523438 127.449219 187.488281 127.449219 C 189.453125 127.449219 191.417969 127.546875 193.375 127.738281 C 195.332031 127.933594 197.273438 128.222656 199.203125 128.605469 C 201.128906 128.988281 203.035156 129.464844 204.917969 130.035156 C 206.796875 130.605469 208.648438 131.269531 210.464844 132.019531 C 212.28125 132.773438 214.054688 133.613281 215.789062 134.539062 C 217.523438 135.46875 219.207031 136.476562 220.84375 137.570312 C 222.480469 138.660156 224.054688 139.832031 225.574219 141.078125 C 227.097656 142.328125 228.550781 143.644531 229.941406 145.035156 C 231.332031 146.425781 232.652344 147.882812 233.898438 149.402344 C 235.144531 150.921875 236.316406 152.5 237.40625 154.132812 C 238.5 155.769531 239.511719 157.453125 240.4375 159.1875 C 241.363281 160.921875 242.203125 162.695312 242.957031 164.511719 C 243.707031 166.328125 244.371094 168.179688 244.941406 170.058594 C 245.511719 171.941406 245.988281 173.847656 246.371094 175.777344 C 246.757812 177.703125 247.042969 179.648438 247.238281 181.605469 C 247.429688 183.5625 247.527344 185.523438 247.527344 187.488281 Z M 247.527344 187.488281 " fill-opacity="1" fill-rule="nonzero"/><g clip-path="url(#8fe48ddc64)"><path fill="#864af9" d="M 213.101562 166.605469 C 210.125 165.324219 206.402344 164.5625 202.484375 165.886719 C 199.914062 166.753906 197.210938 168.550781 194.585938 171.8125 C 194.492188 171.902344 194.410156 172.007812 194.339844 172.125 C 194.214844 172.28125 194.09375 172.4375 193.972656 172.601562 C 192.957031 171.6875 191.828125 170.929688 190.578125 170.351562 C 185.402344 167.953125 181.671875 168.519531 177.9375 169.398438 C 176.179688 169.816406 174.421875 170.308594 172.464844 170.5 C 172.425781 169.300781 172.289062 167.617188 171.871094 165.804688 C 174.03125 166.277344 177.59375 166.460938 182.34375 164.667969 C 191 161.398438 191.503906 153.28125 191.503906 153.28125 C 191.546875 152.636719 191.199219 152.027344 190.621094 151.738281 C 190.621094 151.738281 183.238281 148.046875 175.875 151.75 C 171.75 153.824219 169.976562 157.152344 169.21875 159.761719 C 169.046875 159.53125 168.867188 159.304688 168.675781 159.085938 C 164.328125 154.078125 159.3125 152.6875 159.3125 152.6875 C 158.460938 152.445312 157.574219 152.9375 157.332031 153.789062 C 157.089844 154.640625 157.585938 155.527344 158.4375 155.765625 C 158.4375 155.765625 162.609375 156.984375 166.257812 161.1875 C 168.769531 164.078125 169.234375 168.222656 169.285156 170.464844 C 167.464844 170.25 165.808594 169.789062 164.152344 169.398438 C 160.417969 168.519531 156.6875 167.953125 151.511719 170.351562 C 146.515625 172.664062 143.367188 177.921875 142.152344 184.347656 C 140.414062 193.558594 142.636719 205.140625 148.457031 212.980469 C 156.578125 223.910156 166.464844 224.371094 171.042969 222.390625 C 172.941406 223.222656 175.714844 223.636719 178.90625 223.058594 C 178.890625 223.1875 178.875 223.316406 178.859375 223.441406 C 178.859375 223.449219 178.855469 223.457031 178.855469 223.464844 C 178.671875 225.121094 179.484375 226.726562 180.921875 227.566406 C 182.363281 228.402344 184.164062 228.308594 185.511719 227.328125 C 185.515625 227.324219 185.523438 227.320312 185.527344 227.316406 C 192.210938 222.300781 204.6875 212.195312 215.082031 199.585938 C 222.941406 190.050781 224.53125 183.078125 223.5625 178.109375 C 222.769531 174.050781 220.265625 171.203125 217.679688 169.257812 L 233.644531 160.042969 C 234.410156 159.601562 234.671875 158.621094 234.230469 157.855469 C 233.789062 157.089844 232.808594 156.824219 232.042969 157.269531 L 219.144531 164.714844 L 226.601562 151.796875 C 227.042969 151.03125 226.78125 150.054688 226.015625 149.609375 C 225.25 149.167969 224.269531 149.429688 223.828125 150.195312 L 216.300781 163.230469 L 216.300781 148.179688 C 216.300781 147.296875 215.585938 146.578125 214.699219 146.578125 C 213.816406 146.578125 213.101562 147.296875 213.101562 148.179688 Z M 213.824219 170.550781 C 211.257812 169.070312 207.523438 167.5625 203.511719 168.921875 C 201.738281 169.519531 199.941406 170.65625 198.167969 172.527344 L 209.0625 178.816406 C 209.828125 179.257812 210.089844 180.238281 209.648438 181.003906 C 209.207031 181.769531 208.226562 182.03125 207.460938 181.589844 L 196.125 175.046875 C 195.953125 175.289062 195.78125 175.539062 195.613281 175.796875 C 195.582031 175.855469 195.550781 175.914062 195.511719 175.972656 C 193.980469 178.320312 192.5 181.292969 191.101562 185.015625 L 190.992188 185.308594 L 190.871094 185.636719 L 190.773438 185.898438 L 190.660156 186.207031 L 190.546875 186.527344 L 190.441406 186.816406 L 190.359375 187.054688 L 190.304688 187.210938 C 188.835938 191.367188 187.601562 195.585938 186.5625 199.671875 L 196.128906 205.195312 C 196.894531 205.636719 197.15625 206.617188 196.714844 207.382812 C 196.273438 208.148438 195.292969 208.410156 194.527344 207.96875 L 185.769531 202.910156 C 184.402344 208.746094 183.433594 214.183594 182.761719 218.605469 C 182.464844 220.5625 182.226562 222.316406 182.039062 223.824219 C 181.996094 224.214844 182.191406 224.597656 182.53125 224.796875 C 182.875 224.996094 183.300781 224.972656 183.621094 224.742188 C 189.863281 220.058594 201.242188 210.863281 211.109375 199.332031 L 199.035156 192.359375 C 198.269531 191.917969 198.003906 190.9375 198.445312 190.171875 C 198.890625 189.40625 199.867188 189.144531 200.632812 189.585938 L 213.191406 196.835938 C 219.644531 188.792969 221.25 182.984375 220.417969 178.722656 C 219.605469 174.574219 216.460938 172.085938 213.894531 170.589844 C 213.886719 170.585938 213.875 170.578125 213.863281 170.574219 C 213.851562 170.566406 213.839844 170.558594 213.824219 170.550781 Z M 170.679688 173.777344 C 168.015625 173.695312 165.714844 173.058594 163.417969 172.519531 C 160.300781 171.78125 157.179688 171.253906 152.859375 173.257812 C 148.726562 175.167969 146.300781 179.628906 145.296875 184.941406 C 143.710938 193.34375 145.71875 203.917969 151.027344 211.070312 C 158.21875 220.746094 166.804688 221.214844 170.238281 219.21875 C 170.738281 218.925781 171.351562 218.925781 171.851562 219.21875 C 173.425781 220.132812 176.175781 220.503906 179.363281 219.683594 C 180.585938 211.207031 182.972656 198.328125 187.332031 186.007812 L 187.394531 185.828125 L 187.523438 185.46875 L 187.757812 184.824219 L 187.839844 184.601562 L 187.980469 184.21875 L 188.066406 183.988281 L 188.171875 183.710938 C 189.441406 180.355469 190.785156 177.574219 192.160156 175.289062 C 191.300781 174.453125 190.324219 173.761719 189.230469 173.257812 C 184.910156 171.253906 181.789062 171.78125 178.671875 172.519531 C 176.277344 173.082031 173.875 173.75 171.0625 173.785156 C 171.050781 173.785156 171.039062 173.785156 171.027344 173.785156 C 171 173.78125 170.972656 173.78125 170.945312 173.78125 C 170.867188 173.785156 170.792969 173.785156 170.714844 173.78125 C 170.703125 173.777344 170.691406 173.777344 170.679688 173.777344 Z M 171.910156 162.5 C 172.113281 160.664062 173.050781 156.753906 177.3125 154.609375 C 181.710938 152.398438 186.117188 153.464844 188.101562 154.160156 C 187.621094 156.039062 186.074219 159.835938 181.210938 161.667969 C 176.550781 163.429688 173.347656 162.925781 171.910156 162.5 Z M 171.910156 162.5 " fill-opacity="1" fill-rule="evenodd"/></g><g clip-path="url(#957ff5f8ca)"><path fill="#ffffff" d="M 82.273438 268.492188 L 82.273438 231.863281 L 75.015625 231.863281 L 75.015625 268.492188 C 75.015625 276.902344 78.289062 284.808594 84.238281 290.757812 C 90.183594 296.703125 98.089844 299.980469 106.5 299.980469 L 143.128906 299.980469 L 143.128906 292.722656 L 106.5 292.722656 C 93.140625 292.722656 82.273438 281.851562 82.273438 268.492188 " fill-opacity="1" fill-rule="nonzero"/></g><g clip-path="url(#fa95e8c428)"><path fill="#ffffff" d="M 82.273438 106.503906 C 82.273438 93.144531 93.140625 82.273438 106.5 82.273438 L 143.128906 82.273438 L 143.128906 75.015625 L 106.5 75.015625 C 98.089844 75.015625 90.183594 78.289062 84.238281 84.238281 C 78.289062 90.183594 75.015625 98.09375 75.015625 106.503906 L 75.015625 143.132812 L 82.273438 143.132812 L 82.273438 106.503906 " fill-opacity="1" fill-rule="nonzero"/></g><g clip-path="url(#8b25e38e9d)"><path fill="#ffffff" d="M 290.757812 84.238281 C 284.808594 78.289062 276.902344 75.015625 268.492188 75.015625 L 231.863281 75.015625 L 231.863281 82.273438 L 268.492188 82.273438 C 281.851562 82.273438 292.722656 93.144531 292.722656 106.503906 L 292.722656 143.132812 L 299.980469 143.132812 L 299.980469 106.503906 C 299.980469 98.09375 296.703125 90.183594 290.757812 84.238281 " fill-opacity="1" fill-rule="nonzero"/></g><path fill="#ffffff" d="M 292.722656 268.492188 C 292.722656 281.851562 281.851562 292.722656 268.492188 292.722656 L 231.863281 292.722656 L 231.863281 299.980469 L 268.492188 299.980469 C 276.902344 299.980469 284.808594 296.703125 290.757812 290.757812 C 296.703125 284.8125 299.980469 276.902344 299.980469 268.492188 L 299.980469 231.863281 L 292.722656 231.863281 L 292.722656 268.492188 " fill-opacity="1" fill-rule="nonzero"/></svg>